<?xml version="1.0" encoding="UTF-8"?>
<svg version="1.1" viewBox="0 0 121 31" width="120" xmlns="http://www.w3.org/2000/svg">
    <title>instaread_logo_grey</title>
    <desc>Created with Sketch.</desc>
    <g fill="none" fill-rule="evenodd">
        <g transform="translate(-167 -46)" fill="#000000">
            <g transform="translate(167 46)">
                <path d="m18 0h-18v22.873c0 2.2054 1.7855 3.9932 3.9989 3.9932h2.2319v4.1333l2.7692-2.0667 2.7931 2.0667 2e-7 -4.1333h2.2058c2.2097 0 4.0011-1.7834 4.0011-4.0004v-6.6774-12.056h-16.615v-0.68889h16.615v-1.3778h-16.615v-0.68889h16.615v-1.3778zm-9 12.4c1.5294 0 2.7692-1.2337 2.7692-2.7556 0-1.5219-1.2398-2.7556-2.7692-2.7556-1.5294 0-2.7692 1.2337-2.7692 2.7556 0 1.5219 1.2398 2.7556 2.7692 2.7556zm-2.7692 2.0667h5.5385v11.78h-5.5385v-11.78z"/>
                <path d="m29.641 22h-2.8828v-15.996h2.8828v15.996zm13.16 0h-2.6719v-7.3945c0-0.78125-0.17969-1.3691-0.53906-1.7637-0.35938-0.39453-0.79297-0.5918-1.3008-0.5918-0.69532 0-1.3047 0.30468-1.8281 0.91406s-0.78516 1.5273-0.78516 2.7539v6.082h-2.6719v-11.836h2.4375v2.7422c0.85157-1.9922 2.0469-2.9883 3.5859-2.9883 1.0391 0 1.9277 0.32812 2.666 0.98438 0.73828 0.65625 1.1074 1.8086 1.1074 3.457v7.6406zm1.7578-2.7188 2.5078-0.48047c0.38281 0.96094 1.2266 1.4414 2.5312 1.4414 1.6563 0 2.4844-0.48828 2.4844-1.4648 0-0.3125-0.1289-0.57031-0.38672-0.77344-0.25781-0.20313-0.5625-0.33984-0.91406-0.41016l-2.1562-0.41016c-2.3906-0.46094-3.5859-1.6289-3.5859-3.5039 0-1.0469 0.3789-1.9355 1.1367-2.666 0.75782-0.73047 1.8867-1.0957 3.3867-1.0957 2.5 0 4.0273 0.91796 4.582 2.7539l-2.3789 0.48047c-0.25-0.89063-0.96093-1.3359-2.1328-1.3359-1.4219 0-2.1328 0.44531-2.1328 1.3359 0 0.61719 0.57421 1.043 1.7227 1.2773l2.543 0.52734c1.9766 0.40625 2.9648 1.5391 2.9648 3.3984 0 1.3047-0.50781 2.2793-1.5234 2.9238-1.0156 0.64453-2.2226 0.9668-3.6211 0.9668-1.2109 0-2.2812-0.24414-3.2109-0.73242s-1.5352-1.2324-1.8164-2.2324zm17.824 0.63281v2.0859c-0.79688 0.17188-1.4141 0.25781-1.8516 0.25781-0.71875 0-1.3359-0.14258-1.8516-0.42773s-0.89258-0.67578-1.1309-1.1719c-0.23828-0.4961-0.35742-1.2598-0.35742-2.291v-6.1289h-1.4766v-2.0742h1.6289l0.24609-3.082 2.1914-0.19922v3.2812h2.3789v2.0742h-2.3789v5.7773c0 0.74219 0.13476 1.248 0.4043 1.5176s0.77929 0.4043 1.5293 0.4043c0.21094 0 0.43359-0.0078124 0.66797-0.023438zm12.375 2.0859h-2.543c-0.22656-0.71875-0.36328-1.5156-0.41016-2.3906-0.71094 1.7578-2.0469 2.6367-4.0078 2.6367-1.1797 0-2.1269-0.3457-2.8418-1.0371s-1.0723-1.5605-1.0723-2.6074c0-2.7188 2.3867-4.0781 7.1602-4.0781 0.1875 0 0.4414 0.0039062 0.76172 0.011719v-0.89062c0-1.2266-0.83593-1.8398-2.5078-1.8398-1.625 0-2.5469 0.61328-2.7656 1.8398l-2.2734-0.33984c0.125-0.98438 0.63281-1.7949 1.5234-2.4316 0.89063-0.63672 2.1797-0.95508 3.8672-0.95508 0.91407 0 1.6602 0.076171 2.2383 0.22852 0.57813 0.15234 1.0664 0.41015 1.4648 0.77344 0.39844 0.36328 0.67383 0.75781 0.82617 1.1836s0.22852 1.1465 0.22852 2.1621v5.3438c0 0.77344 0.11719 1.5703 0.35156 2.3906zm-2.9531-6.0234c-3.4531 0-5.1797 0.82421-5.1797 2.4727 0 0.49219 0.17383 0.91211 0.52148 1.2598s0.87304 0.52148 1.5762 0.52148c1.0156 0 1.7832-0.32226 2.3027-0.9668 0.51953-0.64453 0.7793-1.3769 0.7793-2.1973v-1.0898zm8.4727 6.0234h-2.6719v-11.836h2.4141v2.8242c0.34375-1.1016 0.8164-1.9062 1.418-2.4141 0.60157-0.50782 1.2187-0.76172 1.8516-0.76172 0.085938 0 0.20312 0.0039062 0.35156 0.011719v2.8711c-1.3594 0-2.2598 0.43359-2.7012 1.3008-0.44141 0.86719-0.66211 1.707-0.66211 2.5195v5.4844zm12.809-3.7734 2.4141 0.32812c-0.3125 1.0703-0.92187 1.9531-1.8281 2.6484s-2.043 1.043-3.4102 1.043c-1.6406 0-2.9609-0.55078-3.9609-1.6523-1-1.1016-1.5-2.5937-1.5-4.4766 0-1.7891 0.5039-3.2695 1.5117-4.4414 1.0078-1.1719 2.375-1.7578 4.1016-1.7578 1.6875 0 2.9922 0.57812 3.9141 1.7344 0.92188 1.1563 1.3828 2.6406 1.3828 4.4531l-0.011719 0.30469h-8.1211c0 0.80469 0.076171 1.4492 0.22852 1.9336s0.45508 0.90625 0.9082 1.2656c0.45313 0.35938 1.0195 0.53906 1.6992 0.53906 1.3203 0 2.2109-0.64062 2.6719-1.9219zm-0.16406-3.5391c-0.0078125-0.85157-0.26367-1.5469-0.76758-2.0859-0.50391-0.53907-1.1269-0.80859-1.8691-0.80859-0.73438 0-1.3477 0.25195-1.8398 0.75586-0.49219 0.50391-0.78125 1.2168-0.86719 2.1387h5.3438zm15.352 7.3125h-2.543c-0.22656-0.71875-0.36328-1.5156-0.41016-2.3906-0.71094 1.7578-2.0469 2.6367-4.0078 2.6367-1.1797 0-2.1269-0.3457-2.8418-1.0371s-1.0723-1.5605-1.0723-2.6074c0-2.7188 2.3867-4.0781 7.1602-4.0781 0.1875 0 0.4414 0.0039062 0.76172 0.011719v-0.89062c0-1.2266-0.83593-1.8398-2.5078-1.8398-1.625 0-2.5469 0.61328-2.7656 1.8398l-2.2734-0.33984c0.125-0.98438 0.63281-1.7949 1.5234-2.4316 0.89063-0.63672 2.1797-0.95508 3.8672-0.95508 0.91407 0 1.6602 0.076171 2.2383 0.22852 0.57813 0.15234 1.0664 0.41015 1.4648 0.77344 0.39844 0.36328 0.67383 0.75781 0.82617 1.1836 0.15234 0.42578 0.22852 1.1465 0.22852 2.1621v5.3438c0 0.77344 0.11719 1.5703 0.35156 2.3906zm-2.9531-6.0234c-3.4531 0-5.1797 0.82421-5.1797 2.4727 0 0.49219 0.17383 0.91211 0.52148 1.2598s0.87304 0.52148 1.5762 0.52148c1.0156 0 1.7832-0.32226 2.3027-0.9668 0.51953-0.64453 0.7793-1.3769 0.7793-2.1973v-1.0898zm15.527 6.0234h-2.4961v-2.3906c-0.6875 1.7578-1.8516 2.6367-3.4922 2.6367-1.4531 0-2.5664-0.60546-3.3398-1.8164-0.77344-1.2109-1.1602-2.7148-1.1602-4.5117 0-1.6719 0.40234-3.1289 1.207-4.3711 0.80469-1.2422 1.9492-1.8633 3.4336-1.8633 1.5234 0 2.582 0.69531 3.1758 2.0859v-5.7656h2.6719v15.996zm-2.6719-6.9844c0-0.96094-0.22851-1.709-0.68555-2.2441-0.45703-0.53516-1.0488-0.80273-1.7754-0.80273-0.78907 0-1.4062 0.34375-1.8516 1.0312-0.44531 0.6875-0.66797 1.7148-0.66797 3.082 0 2.6406 0.82812 3.9609 2.4844 3.9609 0.65625 0 1.2363-0.2832 1.7402-0.84961s0.75586-1.291 0.75586-2.1738v-2.0039z"/>
            </g>
        </g>
    </g>
</svg>
